<?xml version="1.0" encoding="utf-8"?>
<!-- Generator: Adobe Illustrator 15.0.0, SVG Export Plug-In . SVG Version: 6.00 Build 0)  -->
<!DOCTYPE svg PUBLIC "-//W3C//DTD SVG 1.1//EN" "http://www.w3.org/Graphics/SVG/1.1/DTD/svg11.dtd">
<svg version="1.1" id="Layer_1" xmlns="http://www.w3.org/2000/svg" xmlns:xlink="http://www.w3.org/1999/xlink" x="0px" y="0px"
	 viewBox="0 167.103 1505.699 1216.286"
	 enable-background="new 0 167.103 1505.699 1216.286" xml:space="preserve">
<g>
	<g>
		<path fill="#795138" d="M446.366,929.672c-63.61,106.036-152.556,155.193-194.083,173.459
			c-15.755,14.918-30.796,30.688-30.719,49.53c0.139,30.269,10.87,59.25,11.661,89.35c0.837,32.006-18.515,61.902-7.428,93.878
			c8.467,24.394,32.968,39.325,56.352,34.612c12.544-2.544,30.175-10.608,34.796-24.749c7.228-22.113-22.717-26.207-28.749-43.684
			c-17.755-51.528,17.477-119.448,41.946-161.256c29.912-51.127,96.467-79.396,133.932-122.86
			c28.223-32.734,48.598-68.586,68.262-105.151C512.021,900.551,472.851,885.542,446.366,929.672z"/>
	</g>
	<g>
		<path fill="#795138" d="M1278.569,243.853c0,0-20.688,31.27-17.197,38.76c0.869,1.86,17.26,7.079,34.085,11.994
			c3.521-16.173,13.227-30.347,20.73-45.412c4.403-8.861,8.296-25.33,4.763-34.929c-8.188-22.213-17.059,7.59-25.524,15.786
			c-5.071,4.908-10.792,8.955-16.577,12.917L1278.569,243.853z"/>
	</g>
	<g>
		<path fill="#795138" d="M880.494,1062.379c0.649-2.697,1.304-5.334,1.954-7.984c-5.815-20.997-9.165-43.745-10.9-58.492
			c-14.949-0.294-41.295-1.209-64.104-3.938c0.682,6.032,1.409,12.08,2.23,18.097c2.063,15.104,5.49,26.394,1.193,39.791
			c-3.505,10.948-6.512,23.509-11.072,34.021c-10.171,23.493-1.271,42.907-2.139,66.679c-0.914,25.494-8.466,50.677-12.11,75.875
			c-3.194,22.1-5.506,44.365-6.932,66.695c-0.993,15.397-4.744,36.828,4.915,49.699c5.039,6.729,12.67,10.437,20.358,11.861
			c13.461,2.481,31.495,2.078,44.755-1.704c1.58-0.466,3.01-1.18,4.295-2.078c0.094,0,0.17,0,0.265,0
			c9.938,0,18.716-9.568,18.205-21.244c-0.574-12.686-14.251-23.044-22.47-30.672c-8.514-7.896-17.354-13.555-18.034-26.473
			c-0.808-15.336,6.513-34.549,10.095-49.171C854.164,1169.688,867.33,1116.034,880.494,1062.379z"/>
	</g>
	<path fill="#5B483B" d="M1496.346,457.18c-7.271,28.434-27.415,35.457-54.164,40.953c-4.744,0.979-15.307,0.504-18.763,3.846
		c-3.427,3.318-1.521,11.367-4.374,15.725c-2.806,4.297-8.063,7.313-12.746,9.002c-6.638,2.404-13.786,2.831-20.826,3.032
		c-29.169,0.829-57.729-2.535-86.372-7.678c-37.246-6.706-63.53-13.754-94.359,12.94c-22.794,19.733-40.132,46.249-54.257,72.626
		c-10.468,19.555-17.632,40.132-25.57,60.756c-27.417,71.271-28.75,147.702-72.526,211.482c-1.893,6.481-3.906,12.964-6.076,19.398
		c-11.479,34.1-32.179,65.842-47.188,98.653c-12.979,28.347-20.331,55.934-28.626,85.878
		c-15.197,54.691-30.395,109.401-45.59,164.108c-4.143,14.901-12.594,34.485-11.663,50.117
		c0.793,13.166,10.995,18.949,20.827,26.981c9.475,7.784,25.261,18.36,25.927,31.262c0.604,11.925-9.537,21.663-21.012,21.663
		h-0.312c-1.473,0.946-3.133,1.659-4.931,2.125c-15.336,3.86-36.131,4.279-51.67,1.735c-8.886-1.442-17.692-5.21-23.508-12.095
		c-11.134-13.104-6.809-34.952-5.675-50.646c1.645-22.765,4.311-45.466,7.985-68.014c4.217-25.68,12.948-51.359,14.003-77.349
		c0.991-24.253-9.273-44.039,2.466-67.98c5.257-10.731,8.745-23.539,12.776-34.705c4.962-13.646,1.008-25.137-1.396-40.565
		c-2.571-16.686-4.526-33.464-5.906-50.304c-0.93-33.773,1.707-70.695,1.707-70.695c-3.847,10.746-6.748,21.137-8.934,30.998
		c-3.24,14.606-4.898,28.005-5.646,39.434c-33.818,4.265-68.184,3.893-100.546-0.045c-55.653-6.764-109.541-23.168-162-42.49
		c-14.686-5.38-126.474-60.771-139.516-47.233c-0.061,0.046-0.078,0.063-0.078,0.063c-51.712,55.73-89.923,116.486-151.408,164.526
		c-47.419,37.03-123.34,54.522-163.999,100.328c-33.262,37.436-82.45,99.013-72.215,152.682
		c3.473,18.204,34.782,26.936,23.322,47.651c-7.351,13.229-27.571,18.438-41.403,18.966c-25.804,0.991-49.436-17.586-54.336-43.017
		c-6.451-33.309,19.322-59.794,23.85-91.537c4.264-29.85-2.28-60.167,2.698-90.079c5.303-31.805,56.274-47.821,77.983-70.307
		c25.695-26.61,44.893-59.112,59.904-92.746c28.919-64.866,44.194-137.919,44.659-208.924c0-2.698,0.435-5.134,1.179-7.304
		c-9.646-3.396-19.679-5.521-30.037-4.793c-11.6,0.808-21.415-10.45-21.415-21.398c0-12.157,9.877-20.594,21.415-21.414
		c15.429-1.07,30.471,2.403,44.892,7.675c63.795-74.067,164.619-108.415,259.351-114.742
		c83.209-5.566,153.596-15.777,225.236-61.321c33.185-21.111,67.688-15.811,104.282-18.392
		c32.905-2.327,63.409-16.623,89.073-36.938c34.813-27.571,59.499-64.283,90.388-95.653c27.852-28.314,63.176-51.545,94.793-72.642
		c23.493-15.654,45.545-32.658,71.781-41.884c6.344-10.421,13.568-20.268,21.74-29.293c19.136-21.081,46.646-31.951,63.563-55.258
		c6.39-8.785,17.229-33.503,25.074-11.351c4.419,12.506,0.094,32.091-5.644,43.613c-8.64,17.313-19.615,33.696-24.625,51.995
		c12.67,3.009,25.151,6.443,36.61,8.675c26.549,5.188,97.879,27.362,106.642,57.298c1.055,3.629-1.737,28.121-3.954,27.323
		c21.57,15.972,45.017,27.758,69.671,38.264c9.942,4.241,29.215,8.266,36.861,15.685c2.217,2.142,3.549,4.096,4.218,6.118
		C1499.325,446.023,1498.069,450.349,1496.346,457.18z"/>
</g>
</svg>
