<?xml version="1.0" encoding="UTF-8" standalone="no"?>
<svg
   xmlns:dc="http://purl.org/dc/elements/1.1/"
   xmlns:cc="http://creativecommons.org/ns#"
   xmlns:rdf="http://www.w3.org/1999/02/22-rdf-syntax-ns#"
   xmlns:svg="http://www.w3.org/2000/svg"
   xmlns="http://www.w3.org/2000/svg"
   xmlns:sodipodi="http://sodipodi.sourceforge.net/DTD/sodipodi-0.dtd"
   xmlns:inkscape="http://www.inkscape.org/namespaces/inkscape"
   viewBox="0 0 946.88 1000"
   xml:space="preserve"
   id="svg2"
   version="1.1"
   inkscape:version="0.92.2 (5c3e80d, 2017-08-06)"
   sodipodi:docname="Internet Explorer 4.svg"><sodipodi:namedview
     pagecolor="#ffffff"
     bordercolor="#666666"
     borderopacity="1"
     objecttolerance="10"
     gridtolerance="10"
     guidetolerance="10"
     inkscape:pageopacity="0"
     inkscape:pageshadow="2"
     inkscape:window-width="1366"
     inkscape:window-height="705"
     id="namedview7252"
     showgrid="false"
     inkscape:zoom="0.29980134"
     inkscape:cx="27.693834"
     inkscape:cy="447.73829"
     inkscape:window-x="-8"
     inkscape:window-y="-8"
     inkscape:window-maximized="1"
     inkscape:current-layer="svg2" /><metadata
     id="metadata8"><rdf:RDF><cc:Work
         rdf:about=""><dc:format>image/svg+xml</dc:format><dc:type
           rdf:resource="http://purl.org/dc/dcmitype/StillImage" /><dc:title></dc:title></cc:Work></rdf:RDF></metadata><defs
     id="defs6" /><path
     style="fill:#326ee3;fill-opacity:1;fill-rule:evenodd;stroke:none;stroke-width:0.53451353"
     d="m 840.26365,0.00289147 c -86.7813,-0.46843 -201.09839,56.08535953 -272.78981,97.95063953 -28.08822,-4.43696 -57.52951,-6.76494 -88.2339,-6.76494 -123.64366,0 -223.3903,36.356759 -299.23886,104.934819 -86.238413,78.96368 -134.030299,182.34374 -134.030299,301.83054 0,0.75326 0.03488,1.50219 0.03929,2.25497 C 127.98106,370.56086 283.23298,236.61522 418.30868,184.82507 307.61718,266.01682 137.44368,411.86269 29.277642,699.49271 -8.8299011,811.00064 -20.409148,929.70202 61.035284,981.09886 142.12666,1032.0992 287.23947,971.9103 404.09746,895.47232 c 28.21121,4.04617 57.89475,6.14637 89.17346,6.14637 215.59604,0 366.76771,-118.97314 420.79633,-292.48959 l -296.11479,-0.51674 c -12.47018,61.30228 -54.03555,94.03576 -118.97362,94.03576 -81.56249,0 -137.66682,-44.6789 -141.30421,-148.06133 l 562.10836,-0.5246 c 1.03693,-21.29874 -1.55812,-36.36024 -1.55812,-52.98415 0,-193.821 -115.98129,-345.34782 -304.66491,-393.6348 76.86496,-47.744019 220.46439,-118.374809 289.60037,-61.972749 51.94938,42.0769 23.37714,130.395869 10.90692,166.758799 -2.07923,9.35398 8.83294,10.90504 10.90688,2.07491 C 950.95149,148.84767 958.74562,61.054131 920.81651,26.765101 899.90634,7.9328415 871.92107,0.17375147 840.26365,0.00289147 Z M 490.14682,295.86709 c 71.17155,0 128.84702,41.04535 128.84702,128.8392 H 356.63329 c 1.55973,-89.87312 65.97665,-128.8392 133.51353,-128.8392 z M 113.63579,719.38034 c 24.52595,36.62703 55.19928,69.53546 91.30316,97.03458 48.75926,36.65229 106.06495,61.47975 172.22403,74.48478 C 286.01008,945.30523 160.44021,984.60432 98.962789,938.497 53.111508,903.98439 73.275711,810.52599 113.63579,719.38034 Z"
     id="path20"
     inkscape:connector-curvature="0" /></svg>